<?xml version="1.0" encoding="utf-8"?>
<!-- Generator: Adobe Illustrator 15.1.0, SVG Export Plug-In . SVG Version: 6.00 Build 0)  -->
<!DOCTYPE svg PUBLIC "-//W3C//DTD SVG 1.1//EN" "http://www.w3.org/Graphics/SVG/1.1/DTD/svg11.dtd">
<svg version="1.1" id="Layer_1" xmlns="http://www.w3.org/2000/svg" xmlns:xlink="http://www.w3.org/1999/xlink" x="0px" y="0px"
	 width="96px" height="21.98px" viewBox="0 0 96 21.98" enable-background="new 0 0 96 21.98" xml:space="preserve">
<path fill="#010101" d="M56.994,6.367c-3.395,0-5.707,2.197-6.014,5.409h12.064C62.768,8.747,60.359,6.367,56.994,6.367
	 M50.98,14.004c0.34,3.271,2.9,5.563,6.17,5.563c2.314,0,4.137-1.053,5.246-2.875h3.055c-1.514,3.273-4.381,5.285-8.363,5.285
	c-4.969,0-8.917-3.584-8.917-9.025c0-5.44,3.886-8.997,8.855-8.997c5.338,0,8.854,4.082,8.854,8.961
	c0,0.408-0.059,0.871-0.121,1.088H50.98z M37.803,0h2.59v4.42h6.17v2.255h-6.17v6.865c0,4.852,3.302,5.502,5.619,5.502
	c0.369,0,0.618-0.033,0.863-0.064v2.533c-0.219,0.064-0.618,0.096-1.14,0.096c-6.268,0-7.932-4.205-7.932-7.604V6.676h-3.3V4.42h3.3
	V0z M82.389,6.924c1.119-1.577,3.334-2.905,6.357-2.905C93.342,4.02,96,6.738,96,11.652v9.956h-2.594v-9.461
	c0-3.245-1.262-5.717-5.096-5.717c-3.203,0-5.861,2.223-5.861,5.625v9.553h-2.617V4.42h2.557V6.924z M76.092,6.71
	c-2.615,0-4.748,1.821-4.748,5.562v9.336h-2.596V4.42h2.568v2.255c0.926-1.792,3.176-2.625,4.996-2.625
	c0.338,0,0.646,0.059,0.773,0.122v2.658C76.805,6.738,76.465,6.71,76.092,6.71 M2.747,8.963h12.651V0.28h2.746v21.327h-2.746v-9.986
	H2.747v9.986H0V0.28h2.747V8.963z M23.02,0.28v0.061c0,3.492,1.205,5.501,3.888,7.478c0.771,0.557,1.514,1.114,2.283,1.67
	c3.148,2.287,6.265,5.161,6.265,12.118h-2.809v-0.064c0-6.271-3.023-8.5-6.139-10.694c-1.574-1.114-3.116-2.197-4.289-3.77
	c-1.172-1.608-1.975-3.741-1.975-6.799H23.02z"/>
</svg>
